<svg width="10" height="10" viewBox="0 0 10 10" fill="none" xmlns="http://www.w3.org/2000/svg">
<path d="M9 9L6.33333 6.33333M7.22222 4.11111C7.22222 4.51967 7.14175 4.92422 6.9854 5.30168C6.82906 5.67914 6.59989 6.02211 6.311 6.311C6.02211 6.59989 5.67914 6.82906 5.30168 6.9854C4.92422 7.14175 4.51967 7.22222 4.11111 7.22222C3.70255 7.22222 3.298 7.14175 2.92054 6.9854C2.54308 6.82906 2.20012 6.59989 1.91122 6.311C1.62233 6.02211 1.39317 5.67914 1.23682 5.30168C1.08047 4.92422 1 4.51967 1 4.11111C1 3.28599 1.32778 2.49467 1.91122 1.91122C2.49467 1.32778 3.28599 1 4.11111 1C4.93623 1 5.72755 1.32778 6.311 1.91122C6.89445 2.49467 7.22222 3.28599 7.22222 4.11111Z" stroke="currentColor" stroke-linecap="round" stroke-linejoin="round"/>
</svg>
